Coordinates
version=1
nRows=6
nColumns=36
inDegrees=yes

Units are S.I. units (second, meters, Newtons, ...)
If the header above contains a line with 'inDegrees', this indicates whether rotational values are in degrees (yes) or radians (no).

endheader
time	pelvis_tilt	pelvis_list	pelvis_rotation	pelvis_tx	pelvis_ty	pelvis_tz	hip_flexion_r	hip_adduction_r	hip_rotation_r	knee_angle_r	knee_angle_r_beta	ankle_angle_r	subtalar_angle_r	mtp_angle_r	hip_flexion_l	hip_adduction_l	hip_rotation_l	knee_angle_l	knee_angle_l_beta	ankle_angle_l	subtalar_angle_l	mtp_angle_l	lumbar_extension	lumbar_bending	lumbar_rotation	arm_flex_r	arm_add_r	arm_rot_r	elbow_flex_r	pro_sup_r	arm_flex_l	arm_add_l	arm_rot_l	elbow_flex_l	pro_sup_l
      1.68750000	     -5.03670729	     -0.42961161	      0.86195735	     -0.99777258	      1.37826622	     -0.09801645	     -0.19896467	      1.22955555	    -11.51502550	      0.42408649	      0.00740171	      7.93174360	    -12.99766203	     -7.49999987	      0.20332163	      0.97078983	    -11.97085197	      0.49962496	      0.00872010	      6.57245303	    -11.54927110	     -7.49999987	     -2.67502262	      0.04392809	      0.17764401	     -8.10547492	     -8.80549027	      2.46422666	     28.00157250	     69.52514169	    -10.27627024	    -15.33784436	     13.35964134	     37.46562855	     86.22090589
      1.69166670	     -4.96097568	     -0.42161423	      0.82582143	     -0.99688612	      1.37954440	     -0.09674609	     -0.31820524	      1.24895270	    -11.79668939	      0.42052091	      0.00733947	      7.79506554	    -12.99215771	     -7.49999987	      0.07538957	      0.95403162	    -12.21236057	      0.48506066	      0.00846591	      6.45931787	    -11.58326080	     -7.49999987	     -2.75501127	      0.02682222	      0.18715572	     -8.14844999	     -8.76094433	      2.34001403	     28.14305652	     69.15402012	    -10.27879863	    -15.33556235	     13.38577814	     37.43606185	     85.17616112
      1.69583330	     -4.90717053	     -0.43218515	      0.77569602	     -0.99713204	      1.38010387	     -0.09756264	     -0.38253764	      1.25603846	    -11.94506955	      0.42195410	      0.00736449	      7.78517442	    -13.06424162	     -7.49999987	      0.01377443	      0.93878366	    -12.24346941	      0.48507712	      0.00846619	      6.26957803	    -11.89013797	     -7.49999987	     -2.80437128	      0.06713355	      0.23909866	     -8.12328061	     -8.74107766	      2.26472042	     28.09122666	     68.67381895	    -10.23705173	    -15.31200705	     13.54026593	     37.34557154	     83.93226955
      1.70000000	     -4.90724481	     -0.41626299	      0.76700365	     -0.99732873	      1.38079779	     -0.09670319	     -0.37764307	      1.25467586	    -12.00302691	      0.41111883	      0.00717538	      7.73543549	    -13.10978720	     -7.49999987	      0.00910987	      0.93904539	    -12.22030734	      0.47372175	      0.00826800	      6.02693698	    -12.20263860	     -7.49999987	     -2.80422081	      0.04843015	      0.23336239	     -8.14731170	     -8.68498047	      2.21052781	     28.23431885	     67.94303644	    -10.21469707	    -15.33392449	     13.76456618	     37.33377598	     82.07652520
      1.70416670	     -4.91340454	     -0.42137347	      0.74841752	     -0.99728165	      1.37945239	     -0.09590862	     -0.35275968	      1.26974204	    -12.02339626	      0.41029135	      0.00716093	      7.83866442	    -12.99398692	     -7.49999987	      0.01848862	      0.91639811	    -12.33964847	      0.46895043	      0.00818473	      6.08581625	    -12.07996616	     -7.49999987	     -2.79076090	      0.04365633	      0.29818498	     -8.16942576	     -8.66249572	      2.33775454	     28.31694953	     67.77386363	    -10.17726863	    -15.43046847	     14.03114629	     37.37789162	     81.56334756
      1.70833330	     -4.88940055	     -0.42640065	      0.76823238	     -0.99798045	      1.37945839	     -0.09698497	     -0.35442790	      1.27764640	    -11.98408997	      0.40029134	      0.00698640	      7.85349921	    -13.06664107	     -7.49999987	      0.02409545	      0.91227143	    -12.37181655	      0.47162582	      0.00823142	      6.12315192	    -12.01491979	     -7.49999987	     -2.82240720	      0.03094058	      0.29854795	     -8.14633882	     -8.66119338	      2.43345361	     28.30292826	     67.58592112	    -10.07489695	    -15.45890015	     14.28083289	     37.34448786	     81.05795253
